<?xml version="1.0" standalone="no"?>
<!DOCTYPE svg PUBLIC "-//W3C//DTD SVG 1.0//EN" "http://www.w3.org/TR/2001/REC-SVG-20010904/DTD/svg10.dtd">
<svg xmlns="http://www.w3.org/2000/svg" xmlns:xlink="http://www.w3.org/1999/xlink" id="body_1" width="1024" height="768">

<g transform="matrix(1.536 0 0 1.536 128.00003 -0)">
    <path d="M402.6 218.1C 404.7 226.1 412.9 230.90001 421 228.70001C 429 226.6 433.8 218.40001 431.6 210.30002C 429.5 202.30002 421.30002 197.50002 413.2 199.70001C 405.3 201.9 400.5 210.1 402.6 218.1z" stroke="none" fill="#2A4C87" fill-rule="nonzero" />
    <path d="M382.3 234.1C 387.69998 232.6 391 227 389.5 221.6C 388 216.20001 382.4 212.90001 377 214.40001C 371.6 215.90001 368.3 221.50002 369.8 226.90001C 371.2 232.3 376.8 235.5 382.3 234.1z" stroke="none" fill="#2A4C87" fill-rule="nonzero" />
    <path d="M352.3 239.3C 356.3 238.2 358.69998 234.1 357.59998 230.1C 356.49997 226.1 352.39996 223.70001 348.39996 224.8C 344.39996 225.90001 341.99997 230 343.09998 234C 344.2 238 348.3 240.4 352.3 239.3z" stroke="none" fill="#2A4C87" fill-rule="nonzero" />
    <path d="M329 242.8C 331.5 242.1 333 239.5 332.4 237C 331.8 234.5 329.1 233 326.6 233.6C 324.1 234.3 322.6 236.90001 323.2 239.40001C 323.8 241.9 326.4 243.4 329 242.8z" stroke="none" fill="#2E4E88" fill-rule="nonzero" />
    <path d="M391.5 187.7C 395.3 194.2 403.6 196.5 410.1 192.7C 416.6 188.9 418.9 180.59999 415.1 174.09999C 411.30002 167.59999 403 165.29999 396.5 169.09999C 390 172.9 387.7 181.2 391.5 187.7z" stroke="none" fill="#1F3D70" fill-rule="nonzero" />
    <path d="M361.4 205C 364 209.6 369.8 211.1 374.4 208.5C 379 205.9 380.5 200.1 377.9 195.5C 375.3 190.9 369.5 189.4 364.9 192C 360.4 194.6 358.8 200.4 361.4 205z" stroke="none" fill="#1F3D70" fill-rule="nonzero" />
    <path d="M340 209.5C 336.7 211.4 335.6 215.5 337.5 218.8C 339.4 222.1 343.5 223.2 346.8 221.3C 350.09998 219.40001 351.19998 215.3 349.3 212C 347.5 208.8 343.3 207.7 340 209.5z" stroke="none" fill="#1F3D70" fill-rule="nonzero" />
    <path d="M320.9 223.3C 318.8 224.5 318 227.2 319.19998 229.3C 320.4 231.40001 323.09998 232.2 325.19998 231C 327.3 229.8 328.09998 227.1 326.9 225C 325.7 222.9 323 222.1 320.9 223.3z" stroke="none" fill="#1F3D70" fill-rule="nonzero" />
    <path d="M390 161C 394.8 156.2 394.8 148.5 390 143.7C 385.2 138.9 377.5 138.9 372.7 143.7C 367.90002 148.5 367.90002 156.2 372.7 161C 377.4 165.8 385.2 165.8 390 161z" stroke="none" fill="#194C88" fill-rule="nonzero" />
    <path d="M360.1 173.5C 356.6 170 351 170 347.6 173.5C 344.1 177 344.1 182.6 347.6 186C 351.1 189.5 356.7 189.5 360.1 186C 363.6 182.5 363.6 176.9 360.1 173.5z" stroke="none" fill="#194C88" fill-rule="nonzero" />
    <path d="M328.1 196.8C 325.7 199.2 325.7 203.1 328.1 205.5C 330.5 207.9 334.4 207.9 336.80002 205.5C 339.2 203.1 339.2 199.2 336.80002 196.9C 334.4 194.4 330.5 194.4 328.1 196.8z" stroke="none" fill="#194C88" fill-rule="nonzero" />
    <path d="M313 220.6C 314.6 222.20001 317.2 222.20001 318.8 220.6C 320.4 219 320.4 216.40001 318.8 214.8C 317.19998 213.2 314.59998 213.2 313 214.8C 311.40002 216.40001 311.4 219 313 220.6z" stroke="none" fill="#194C88" fill-rule="nonzero" />
    <path d="M346.9 140.4C 352.4 143.59999 359.5 141.7 362.69998 136.2C 365.89996 130.7 363.99997 123.6 358.49997 120.399994C 352.99997 117.2 345.89996 119.09999 342.69998 124.59999C 339.4 130.1 341.3 137.2 346.9 140.4C 346.8 140.4 346.9 140.4 346.9 140.4z" stroke="none" fill="#3468A3" fill-rule="nonzero" />
    <path d="M326.2 159.9C 323.90002 163.79999 325.30002 168.79999 329.2 171.09999C 333.1 173.4 338.1 171.99998 340.40002 168.09999C 342.7 164.2 341.30002 159.2 337.40002 156.9C 333.4 154.6 328.4 156 326.2 159.9z" stroke="none" fill="#3468A3" fill-rule="nonzero" />
    <path d="M320.8 185.5C 318.19998 184 314.9 184.9 313.4 187.5C 311.9 190.1 312.8 193.4 315.4 194.9C 318 196.4 321.3 195.5 322.8 192.9C 324.3 190.3 323.4 187 320.8 185.5z" stroke="none" fill="#3468A3" fill-rule="nonzero" />
    <path d="M308.2 207.3C 306.40002 206.3 304.1 206.90001 303.1 208.7C 302.1 210.49998 302.7 212.8 304.5 213.8C 306.3 214.8 308.6 214.2 309.6 212.40001C 310.6 210.6 310 208.3 308.2 207.3z" stroke="none" fill="#3468A3" fill-rule="nonzero" />
    <path d="M316.5 127.1C 322.3 128.7 328.3 125.2 329.8 119.4C 331.4 113.6 327.9 107.6 322.09998 106.1C 316.29996 104.6 310.3 108 308.8 113.799995C 307.2 119.6 310.7 125.6 316.5 127.1z" stroke="none" fill="#4C8DCB" fill-rule="nonzero" />
    <path d="M307.3 161.3C 311.3 162.40001 315.4 160 316.5 156C 317.6 152 315.2 147.9 311.2 146.8C 307.2 145.7 303.1 148.1 302 152.1C 301 156.1 303.3 160.2 307.3 161.3z" stroke="none" fill="#4C8DCB" fill-rule="nonzero" />
    <path d="M300.1 188.3C 302.80002 189 305.6 187.40001 306.30002 184.7C 307.00003 181.99998 305.40002 179.2 302.7 178.5C 300 177.8 297.2 179.4 296.5 182.1C 295.8 184.7 297.4 187.5 300.1 188.3z" stroke="none" fill="#4C8DCB" fill-rule="nonzero" />
    <path d="M292.1 205.1C 291.6 206.90001 292.7 208.8 294.5 209.3C 296.3 209.8 298.2 208.7 298.7 206.90001C 299.2 205.1 298.1 203.20001 296.30002 202.70001C 294.4 202.2 292.5 203.3 292.1 205.1z" stroke="none" fill="#4C8DCB" fill-rule="nonzero" />
    <path d="M283.5 122.1C 289.1 122.1 293.7 117.5 293.7 111.9C 293.7 106.3 289.1 101.700005 283.5 101.700005C 277.9 101.700005 273.3 106.3 273.3 111.9C 273.3 117.6 277.9 122.1 283.5 122.1z" stroke="none" fill="#3498B3" fill-rule="nonzero" />
    <path d="M283.5 143.9C 279.7 143.9 276.7 146.9 276.7 150.7C 276.7 154.5 279.7 157.5 283.5 157.5C 287.3 157.5 290.3 154.5 290.3 150.7C 290.3 147 287.3 143.9 283.5 143.9z" stroke="none" fill="#3498B3" fill-rule="nonzero" />
    <path d="M288.3 181C 288.3 178.4 286.19998 176.2 283.5 176.2C 280.80002 176.2 278.7 178.3 278.7 181C 278.7 183.7 280.80002 185.8 283.5 185.8C 286.2 185.8 288.3 183.6 288.3 181z" stroke="none" fill="#3498B3" fill-rule="nonzero" />
    <path d="M283.5 201.4C 281.8 201.4 280.4 202.79999 280.4 204.5C 280.4 206.2 281.8 207.6 283.5 207.6C 285.2 207.6 286.6 206.20001 286.6 204.5C 286.6 202.8 285.2 201.4 283.5 201.4z" stroke="none" fill="#3498B3" fill-rule="nonzero" />
    <path d="M250.2 125.9C 255.3 124.5 258.3 119.3 256.9 114.200005C 255.5 109.100006 250.29999 106.100006 245.2 107.50001C 240.1 108.90001 237.09999 114.100006 238.5 119.200005C 239.9 124.2 245.2 127.2 250.2 125.9z" stroke="none" fill="#0AA496" fill-rule="nonzero" />
    <path d="M251.9 155.7C 252.79999 159 256.1 160.9 259.4 160C 262.69998 159.1 264.6 155.8 263.69998 152.5C 262.8 149.2 259.49997 147.3 256.19998 148.2C 253 149.1 251 152.5 251.9 155.7z" stroke="none" fill="#0AA496" fill-rule="nonzero" />
    <path d="M261.4 184.6C 262 187 264.5 188.40001 266.8 187.70001C 269.19998 187.1 270.59998 184.6 269.9 182.30002C 269.3 179.90002 266.8 178.50002 264.5 179.20001C 262.1 179.8 260.8 182.2 261.4 184.6C 261.4 184.5 261.4 184.5 261.4 184.6z" stroke="none" fill="#0AA496" fill-rule="nonzero" />
    <path d="M269.1 206.8C 269.5 208.3 271 209.1 272.4 208.7C 273.9 208.3 274.69998 206.8 274.3 205.4C 273.9 203.9 272.4 203.09999 271 203.5C 269.6 203.9 268.7 205.3 269.1 206.8z" stroke="none" fill="#0AA496" fill-rule="nonzero" />
    <path d="M218.9 138.2C 223.09999 135.8 224.59999 130.3 222.2 126.1C 219.8 121.899994 214.3 120.4 210.09999 122.799995C 205.9 125.2 204.4 130.7 206.79999 134.9C 209.3 139.2 214.7 140.6 218.9 138.2z" stroke="none" fill="#00AA75" fill-rule="nonzero" />
    <path d="M236.6 168.8C 239.20001 167.3 240.1 164 238.6 161.40001C 237.1 158.8 233.8 157.90001 231.20001 159.40001C 228.6 160.90001 227.70001 164.20001 229.20001 166.8C 230.6 169.4 234 170.3 236.6 168.8z" stroke="none" fill="#00AA75" fill-rule="nonzero" />
    <path d="M251 193.9C 253 192.79999 253.6 190.29999 252.5 188.29999C 251.4 186.29999 248.9 185.69998 246.9 186.79999C 244.9 187.9 244.29999 190.4 245.4 192.4C 246.6 194.3 249.1 195 251 193.9z" stroke="none" fill="#00AA75" fill-rule="nonzero" />
    <path d="M262.8 209.5C 262.09998 208.4 260.69998 208 259.5 208.6C 258.4 209.3 258 210.70001 258.6 211.90001C 259.30002 213.00002 260.7 213.40001 261.80002 212.8C 263.1 212.1 263.5 210.6 262.8 209.5z" stroke="none" fill="#00AA75" fill-rule="nonzero" />
    <path d="M191.6 158.3C 194.8 155.1 194.8 149.90001 191.6 146.7C 188.40001 143.5 183.20001 143.5 180 146.7C 176.8 149.9 176.8 155.09999 180 158.3C 183.3 161.5 188.5 161.5 191.6 158.3z" stroke="none" fill="#4FBA6A" fill-rule="nonzero" />
    <path d="M216.7 176.6C 214.8 174.70001 211.8 174.70001 210 176.6C 208.1 178.5 208.1 181.5 210 183.3C 211.9 185.2 214.9 185.2 216.7 183.3C 218.5 181.4 218.5 178.4 216.7 176.6z" stroke="none" fill="#4FBA6A" fill-rule="nonzero" />
    <path d="M237.4 198.7C 235.9 197.2 233.59999 197.2 232.09999 198.7C 230.59999 200.2 230.59999 202.5 232.09999 204C 233.59999 205.5 235.9 205.5 237.4 204C 238.8 202.5 238.8 200.2 237.4 198.7z" stroke="none" fill="#4FBA6A" fill-rule="nonzero" />
    <path d="M252.8 216.5C 252 215.7 250.7 215.8 250 216.6C 249.2 217.40001 249.3 218.70001 250.1 219.40001C 250.90001 220.1 252.1 220.1 252.90001 219.40001C 253.6 218.6 253.6 217.3 252.8 216.5z" stroke="none" fill="#4FBA6A" fill-rule="nonzero" />
    <path d="M160 187.4C 163.6 189.5 168.2 188.2 170.2 184.7C 172.3 181.09999 171 176.5 167.5 174.5C 163.9 172.4 159.3 173.7 157.3 177.2C 155.2 180.7 156.4 185.3 160 187.4z" stroke="none" fill="#7EC45F" fill-rule="nonzero" />
    <path d="M199.6 197C 197.6 195.9 195.20001 196.6 194 198.5C 192.9 200.5 193.6 202.9 195.5 204.1C 197.5 205.20001 199.9 204.6 201.1 202.6C 202.2 200.6 201.5 198.1 199.6 197z" stroke="none" fill="#7EC45F" fill-rule="nonzero" />
    <path d="M225.5 212.7C 223.9 211.8 221.8 212.3 220.9 214C 220 215.6 220.5 217.7 222.2 218.6C 223.8 219.5 225.9 219 226.8 217.40001C 227.7 215.8 227.1 213.7 225.5 212.7z" stroke="none" fill="#7EC45F" fill-rule="nonzero" />
    <path d="M421.9 233.6C 412.9 233.6 405.5 240.90001 405.5 250C 405.5 259 412.8 266.4 421.9 266.4C 430.9 266.4 438.19998 259.1 438.3 250.09999C 438.2 241 430.9 233.6 421.9 233.6z" stroke="none" fill="#4C609B" fill-rule="nonzero" />
    <path d="M394.8 250C 394.8 243.5 389.59998 238.3 383.09998 238.3C 376.59998 238.3 371.39996 243.5 371.39996 250C 371.39996 256.5 376.59998 261.7 383.09998 261.7C 389.5 261.7 394.8 256.5 394.8 250z" stroke="none" fill="#4C609B" fill-rule="nonzero" />
    <path d="M352.8 242C 348.4 242 344.8 245.6 344.8 250C 344.8 254.4 348.4 258 352.8 258C 357.19998 258 360.8 254.4 360.8 250C 360.8 245.6 357.2 242 352.8 242z" stroke="none" fill="#4C609B" fill-rule="nonzero" />
    <path d="M334.5 250C 334.5 247.1 332.2 244.8 329.3 244.8C 326.4 244.8 324.09998 247.1 324.09998 250C 324.09998 252.9 326.39996 255.2 329.3 255.2C 332.2 255.2 334.5 252.9 334.5 250z" stroke="none" fill="#54669F" fill-rule="nonzero" />
    <path d="M421 271.2C 413 269 404.8 273.80002 402.6 281.80002C 400.4 289.80002 405.2 298.00003 413.2 300.2C 421.2 302.40002 429.40002 297.6 431.6 289.6C 431.6 289.6 431.6 289.6 431.6 289.5C 433.7 281.6 428.9 273.4 421 271.2z" stroke="none" fill="#746FA7" fill-rule="nonzero" />
    <path d="M377 285.5C 382.4 287 388 283.7 389.5 278.3C 391 272.9 387.7 267.3 382.3 265.8C 376.9 264.3 371.3 267.59998 369.8 273C 368.3 278.4 371.5 284 377 285.5z" stroke="none" fill="#746FA7" fill-rule="nonzero" />
    <path d="M348.4 275.1C 352.4 276.2 356.5 273.80002 357.6 269.80002C 358.7 265.80002 356.30002 261.7 352.30002 260.6C 348.30002 259.5 344.2 261.9 343.1 265.9C 342.1 269.9 344.4 274 348.4 275.1z" stroke="none" fill="#746FA7" fill-rule="nonzero" />
    <path d="M326.5 266.4C 329 267.1 331.6 265.6 332.3 263C 333 260.5 331.5 257.9 328.9 257.2C 326.4 256.5 323.8 258 323.1 260.6C 322.4 263 323.9 265.7 326.5 266.4C 326.5 266.3 326.5 266.3 326.5 266.4z" stroke="none" fill="#746FA7" fill-rule="nonzero" />
    <path d="M410.1 307.2C 403.6 303.40002 395.30002 305.7 391.5 312.2C 387.69998 318.7 390 327 396.5 330.80002C 403 334.6 411.3 332.30002 415.1 325.80002C 418.8 319.3 416.6 311 410.1 307.2z" stroke="none" fill="#99558E" fill-rule="nonzero" />
    <path d="M378 304.4C 380.6 299.8 379.1 294 374.5 291.4C 369.9 288.8 364.1 290.3 361.5 294.9C 358.9 299.5 360.4 305.3 365 307.9C 369.5 310.5 375.3 308.9 378 304.4z" stroke="none" fill="#99558E" fill-rule="nonzero" />
    <path d="M349.3 287.9C 351.19998 284.6 350.09998 280.5 346.8 278.6C 343.5 276.7 339.4 277.80002 337.5 281.1C 335.6 284.4 336.7 288.5 340 290.4C 343.3 292.2 347.4 291.1 349.3 287.9z" stroke="none" fill="#99558E" fill-rule="nonzero" />
    <path d="M327 274.9C 328.2 272.8 327.5 270.1 325.4 268.8C 323.3 267.59998 320.6 268.3 319.3 270.4C 317.99997 272.5 318.8 275.19998 320.9 276.5C 320.9 276.5 320.9 276.5 321 276.5C 323.1 277.7 325.8 277 327 274.9z" stroke="none" fill="#99558E" fill-rule="nonzero" />
    <path d="M372.6 338.9C 367.80002 343.69998 367.80002 351.4 372.6 356.19998C 377.4 360.99997 385.1 360.99997 389.9 356.19998C 394.69998 351.4 394.69998 343.69998 389.9 338.9C 385.2 334.2 377.4 334.2 372.6 338.9z" stroke="none" fill="#AF3379" fill-rule="nonzero" />
    <path d="M360.1 326.4C 363.6 322.9 363.6 317.3 360.1 313.9C 356.6 310.4 351 310.4 347.6 313.9C 344.1 317.4 344.1 323 347.6 326.4C 351 329.9 356.6 329.9 360.1 326.4z" stroke="none" fill="#AF3379" fill-rule="nonzero" />
    <path d="M336.8 303.1C 339.19998 300.7 339.19998 296.80002 336.8 294.4C 334.4 292 330.5 292 328.09998 294.4C 325.69998 296.8 325.69998 300.69998 328.09998 303C 330.5 305.5 334.4 305.5 336.8 303.1z" stroke="none" fill="#AF3379" fill-rule="nonzero" />
    <path d="M313 285C 314.6 286.6 317.2 286.6 318.8 285C 320.4 283.4 320.4 280.8 318.8 279.2C 317.19998 277.6 314.59998 277.6 313 279.2C 311.4 280.8 311.4 283.4 313 285z" stroke="none" fill="#AF3379" fill-rule="nonzero" />
    <path d="M346.9 359.5C 341.4 362.7 339.5 369.8 342.69998 375.3C 345.9 380.8 352.99997 382.69998 358.49997 379.5C 363.99997 376.3 365.89996 369.2 362.69998 363.7C 359.5 358.2 352.4 356.3 346.9 359.5z" stroke="none" fill="#BE266A" fill-rule="nonzero" />
    <path d="M340.3 331.9C 338 328 333.09998 326.6 329.09998 328.9C 325.19998 331.19998 323.8 336.1 326.09998 340.1C 328.39996 344 333.3 345.4 337.3 343.1C 341.2 340.8 342.6 335.8 340.3 331.9z" stroke="none" fill="#BE266A" fill-rule="nonzero" />
    <path d="M320.8 314.4C 323.4 312.9 324.3 309.6 322.8 307C 321.3 304.4 318 303.5 315.4 305C 312.8 306.5 311.9 309.8 313.4 312.4C 314.9 315 318.2 315.9 320.8 314.4z" stroke="none" fill="#BE266A" fill-rule="nonzero" />
    <path d="M304.5 286.1C 302.7 287.1 302.1 289.4 303.1 291.2C 304.1 293.00003 306.4 293.6 308.2 292.6C 310 291.6 310.6 289.30002 309.6 287.5C 308.6 285.7 306.3 285.1 304.5 286.1z" stroke="none" fill="#BE266A" fill-rule="nonzero" />
    <path d="M316.5 372.8C 310.7 374.4 307.2 380.3 308.8 386.09998C 310.4 391.89996 316.3 395.39996 322.09998 393.8C 327.89996 392.19998 331.39996 386.3 329.8 380.5C 328.3 374.7 322.3 371.2 316.5 372.8z" stroke="none" fill="#D4525C" fill-rule="nonzero" />
    <path d="M311.2 353C 315.2 351.9 317.6 347.8 316.5 343.8C 315.4 339.8 311.3 337.4 307.3 338.5C 303.3 339.6 301 343.7 302 347.7C 303.1 351.8 307.2 354.1 311.2 353C 311.2 353.1 311.2 353.1 311.2 353z" stroke="none" fill="#D4525C" fill-rule="nonzero" />
    <path d="M306.3 315.2C 305.59998 312.5 302.8 310.90002 300.09998 311.6C 297.39996 312.3 295.8 315.1 296.49997 317.80002C 297.19998 320.50003 299.99997 322.1 302.69998 321.40002C 305.5 320.8 307.1 318 306.3 315.2C 306.3 315.3 306.3 315.3 306.3 315.2z" stroke="none" fill="#D4525C" fill-rule="nonzero" />
    <path d="M298.6 293C 298.1 291.2 296.2 290.1 294.4 290.6C 292.6 291.1 291.5 293 292 294.80002C 292.5 296.6 294.3 297.7 296.2 297.2C 298 296.7 299.1 294.8 298.6 293z" stroke="none" fill="#D4525C" fill-rule="nonzero" />
    <path d="M283.5 377.8C 277.9 377.8 273.3 382.4 273.3 388C 273.3 393.6 277.9 398.2 283.5 398.2C 289.1 398.2 293.7 393.7 293.7 388C 293.7 382.4 289.2 377.8 283.5 377.8z" stroke="none" fill="#E0654F" fill-rule="nonzero" />
    <path d="M276.7 349.2C 276.7 353 279.7 356 283.5 356C 287.3 356 290.3 353 290.3 349.2C 290.3 345.40002 287.3 342.40002 283.5 342.40002C 279.8 342.4 276.7 345.4 276.7 349.2z" stroke="none" fill="#E0654F" fill-rule="nonzero" />
    <path d="M283.5 323.6C 286.1 323.6 288.3 321.5 288.3 318.80002C 288.3 316.10004 286.19998 314.00003 283.5 314.00003C 280.9 314.00003 278.7 316.10004 278.7 318.80002C 278.8 321.5 280.9 323.6 283.5 323.6C 283.5 323.7 283.5 323.7 283.5 323.6z" stroke="none" fill="#E0654F" fill-rule="nonzero" />
    <path d="M283.5 292.3C 281.8 292.3 280.4 293.69998 280.4 295.4C 280.4 297.1 281.8 298.5 283.5 298.5C 285.2 298.5 286.6 297.1 286.6 295.4C 286.6 293.7 285.2 292.3 283.5 292.3z" stroke="none" fill="#E0654F" fill-rule="nonzero" />
    <path d="M250.2 374C 245.09999 372.6 239.9 375.7 238.5 380.7C 237.1 385.80002 240.2 391 245.2 392.40002C 250.3 393.80002 255.5 390.7 256.9 385.7C 258.3 380.6 255.3 375.4 250.2 374z" stroke="none" fill="#F57F2A" fill-rule="nonzero" />
    <path d="M259.4 339.8C 256.1 338.9 252.79999 340.9 251.9 344.09998C 251 347.39996 253 350.69998 256.19998 351.59998C 259.49997 352.49997 262.8 350.49997 263.69998 347.3C 264.6 344.1 262.7 340.7 259.4 339.8z" stroke="none" fill="#F57F2A" fill-rule="nonzero" />
    <path d="M266.8 312.2C 264.4 311.6 262 313 261.4 315.30002C 260.8 317.7 262.19998 320.1 264.5 320.7C 266.9 321.30002 269.3 319.90002 269.9 317.6C 270.6 315.3 269.2 312.9 266.8 312.2z" stroke="none" fill="#F57F2A" fill-rule="nonzero" />
    <path d="M274.4 294.5C 274.8 293 273.9 291.5 272.5 291.2C 271.1 290.90002 269.5 291.7 269.2 293.1C 268.90002 294.5 269.7 296.1 271.1 296.4C 272.5 296.8 274 296 274.4 294.5z" stroke="none" fill="#F57F2A" fill-rule="nonzero" />
    <path d="M218.9 361.7C 214.7 359.30002 209.29999 360.7 206.79999 364.90002C 204.4 369.10004 205.79999 374.50003 209.99998 377.00003C 214.19998 379.40002 219.59999 378.00003 222.09999 373.80002C 224.6 369.6 223.1 364.2 218.9 361.7z" stroke="none" fill="#F89828" fill-rule="nonzero" />
    <path d="M236.6 331.1C 234 329.6 230.70001 330.5 229.20001 333.1C 227.70001 335.7 228.6 339 231.20001 340.5C 233.80002 342 237.1 341.1 238.6 338.5C 240.1 335.9 239.2 332.6 236.6 331.1z" stroke="none" fill="#F89828" fill-rule="nonzero" />
    <path d="M247 313.1C 249 314.2 251.5 313.6 252.6 311.6C 253.70001 309.6 253.1 307.1 251.1 306C 249.1 304.9 246.6 305.5 245.5 307.5C 244.4 309.5 245 312 247 313.1z" stroke="none" fill="#F89828" fill-rule="nonzero" />
    <path d="M262 287.1C 260.9 286.4 259.4 286.80002 258.8 288C 258.09998 289.1 258.5 290.6 259.69998 291.2C 260.8 291.90002 262.3 291.5 262.9 290.30002C 263.5 289.3 263.1 287.8 262 287.1C 262 287.2 262 287.2 262 287.1z" stroke="none" fill="#F89828" fill-rule="nonzero" />
    <path d="M180.1 341.6C 176.90001 344.80002 176.90001 350 180.1 353.2C 183.3 356.40002 188.5 356.40002 191.70001 353.2C 194.90002 350 194.90001 344.80002 191.70001 341.6C 188.5 338.4 183.3 338.4 180.1 341.6z" stroke="none" fill="#FEC127" fill-rule="nonzero" />
    <path d="M210 316.6C 208.1 318.5 208.1 321.5 210 323.30002C 211.9 325.2 214.9 325.2 216.7 323.30002C 218.5 321.40002 218.59999 318.40002 216.7 316.6C 214.9 314.7 211.8 314.7 210 316.6z" stroke="none" fill="#FEC127" fill-rule="nonzero" />
    <path d="M232.1 295.9C 230.6 297.4 230.6 299.69998 232.1 301.19998C 233.6 302.69998 235.90001 302.69998 237.40001 301.19998C 238.90001 299.69998 238.90001 297.4 237.40001 295.9C 235.9 294.4 233.5 294.4 232.1 295.9z" stroke="none" fill="#FEC127" fill-rule="nonzero" />
    <path d="M252.8 280.5C 252 279.7 250.7 279.8 250 280.6C 249.2 281.4 249.3 282.7 250.1 283.4C 250.90001 284.1 252.1 284.1 252.90001 283.4C 253.6 282.6 253.6 281.3 252.8 280.5z" stroke="none" fill="#FEC127" fill-rule="nonzero" />
    <path d="M160.2 312.3C 156.59999 314.4 155.4 318.9 157.5 322.5C 159.6 326.1 164.1 327.3 167.7 325.2C 171.3 323.1 172.5 318.6 170.4 315C 168.4 311.4 163.8 310.2 160.2 312.3z" stroke="none" fill="#FED627" fill-rule="nonzero" />
    <path d="M195.5 295.8C 193.6 296.9 192.9 299.4 194 301.4C 195.1 303.3 197.6 304 199.6 302.9C 201.5 301.8 202.20001 299.3 201.1 297.3C 200 295.4 197.5 294.7 195.5 295.8z" stroke="none" fill="#FED627" fill-rule="nonzero" />
    <path d="M222.1 281.3C 220.5 282.19998 219.90001 284.3 220.90001 285.9C 221.8 287.5 223.90001 288.1 225.50002 287.1C 227.10002 286.2 227.70001 284.1 226.70001 282.5C 225.8 280.9 223.7 280.3 222.1 281.3z" stroke="none" fill="#FED627" fill-rule="nonzero" />
    <path d="M145 226.2L157 226.2L157 272.4L145 272.4L145 226.2zM152.3 205.6C 148.6 204.6 144.8 206.8 143.8 210.5C 142.8 214.2 145 218 148.7 219C 152.4 220 156.2 217.8 157.2 214.1C 158.2 210.4 156 206.5 152.3 205.6zM194.1 273.4C 191.20001 273.4 188.3 272.9 185.6 271.69998C 183.20001 270.59998 181.1 268.9 179.5 266.8L179.5 266.8L179.5 295.5L167.8 295.5L167.8 226.2L179.40001 226.2L179.40001 232.59999C 180.90001 230.29999 183.00002 228.49998 185.50002 227.2C 188.10002 225.9 191.00002 225.2 194.00002 225.2C 196.90001 225.2 199.70001 225.8 202.40001 226.9C 205.1 228 207.50002 229.7 209.50002 231.7C 211.60002 233.9 213.30002 236.5 214.40001 239.3C 215.70001 242.5 216.3 245.8 216.20001 249.2C 216.30002 252.59999 215.6 256 214.30002 259.2C 213.10002 262 211.40002 264.6 209.30002 266.80002C 205.4 271 199.8 273.4 194.1 273.4zM191.7 262.2C 193.4 262.2 195.09999 261.90002 196.7 261.2C 198.2 260.5 199.59999 259.6 200.8 258.40002C 202 257.2 202.90001 255.80002 203.5 254.30002C 204.8 251.00002 204.8 247.40002 203.5 244.10002C 202.9 242.60002 201.9 241.20003 200.8 240.00002C 199.6 238.80002 198.2 237.90001 196.7 237.20001C 195.09999 236.50002 193.4 236.20001 191.7 236.20001C 188.3 236.20001 185 237.6 182.5 240.00002C 181.3 241.20001 180.4 242.60002 179.8 244.10002C 178.5 247.40002 178.5 251.00002 179.8 254.20003C 180.40001 255.70003 181.3 257.10004 182.5 258.30002C 185 260.9 188.3 262.3 191.7 262.2zM224.8 226.2L236.40001 226.2L236.40001 233.3C 237.40001 230.8 239.1 228.7 241.40001 227.3C 243.8 226 246.40001 225.3 249.20001 225.40001C 250.70001 225.40001 252.1 225.6 253.50002 225.90001C 254.70001 226.20001 255.90001 226.6 257 227.20001L257 227.20001L252.7 238.80002C 251.9 238.30002 251 237.90002 250.09999 237.60002C 248.9 237.30002 247.7 237.10002 246.49998 237.10002C 243.79999 237.00002 241.19998 237.90002 239.19998 239.60002C 237.39998 241.30002 236.49998 244.10002 236.49998 247.90002L236.49998 247.90002L236.49998 272.30002L224.79999 272.30002L224.8 226.2zM283.1 273.4C 279.80002 273.4 276.5 272.8 273.4 271.5C 270.5 270.3 267.9 268.5 265.6 266.3C 261.1 261.8 258.6 255.69998 258.6 249.29999C 258.6 246.09999 259.2 242.9 260.4 239.9C 261.6 237 263.3 234.4 265.5 232.2C 275.2 222.8 290.6 222.8 300.3 232.2C 304.8 236.7 307.4 242.8 307.4 249.2C 307.4 252.4 306.8 255.59999 305.5 258.5C 304.3 261.4 302.5 264 300.4 266.2C 298.19998 268.40002 295.6 270.2 292.6 271.40002C 289.7 272.7 286.4 273.4 283.1 273.4zM283.2 262.2C 284.90002 262.2 286.6 261.90002 288.2 261.2C 289.7 260.5 291 259.6 292.2 258.5C 293.40002 257.3 294.30002 255.9 294.90002 254.4C 296.2 251.09999 296.2 247.5 294.90002 244.29999C 294.30002 242.79999 293.40002 241.4 292.2 240.19998C 291 238.99998 289.7 238.09998 288.2 237.49998C 285 236.09999 281.40002 236.09999 278.30002 237.49998C 276.80002 238.19998 275.50003 239.09999 274.30002 240.19998C 273.1 241.39998 272.2 242.79999 271.6 244.29999C 270.30002 247.59999 270.30002 251.19998 271.6 254.4C 272.2 255.9 273.1 257.3 274.30002 258.5C 275.50003 259.7 276.80002 260.6 278.30002 261.2C 279.8 261.8 281.5 262.2 283.2 262.2zM61.5 226.2L73.5 226.2L82.8 255.7L93.8 226.2L104.200005 226.2L115.00001 255.7L124.700005 226.2L136.70001 226.2L121 272.4L109.9 272.4L98.9 242.29999L87.8 272.4L76.5 272.4L61.5 226.2z" stroke="none" fill="#351A55" fill-rule="nonzero" />
</g>
</svg>